<?xml version="1.0" standalone="no"?><!DOCTYPE svg PUBLIC "-//W3C//DTD SVG 1.1//EN" "http://www.w3.org/Graphics/SVG/1.1/DTD/svg11.dtd"><svg xmlns="http://www.w3.org/2000/svg" viewBox="0 0 650 400" version="1.1"><clipPath id="box"><rect x="0" y="0" width="650" height="400" style="fill:none;stroke:none;" /></clipPath><g clip-path="url(#box)"><rect x="0.00" y="0.00" width="650.00" height="400.00" style="fill:#FFFFFF;stroke:none;" /><path d="M0.00 348.00 L650.00 348.00 M0.00 272.00 L650.00 272.00 M0.00 195.00 L650.00 195.00 M0.00 119.00 L650.00 119.00 M0.00 43.00 L650.00 43.00 M0.00 0.00 L0.00 400.00 M76.00 0.00 L76.00 400.00 M152.00 0.00 L152.00 400.00 M229.00 0.00 L229.00 400.00 M305.00 0.00 L305.00 400.00 M381.00 0.00 L381.00 400.00 M458.00 0.00 L458.00 400.00 M534.00 0.00 L534.00 400.00 M610.00 0.00 L610.00 400.00 " style="fill:none;stroke:#D0D0D0;stroke-width:1;" /><path d="M305.48 0.00 L305.48 400.00 " style="fill:none;stroke:#000000;stroke-width:1;" /><path d="M298.98 424.63 L311.98 424.63 M298.98 348.34 L311.98 348.34 M298.98 272.04 L311.98 272.04 M298.98 195.75 L311.98 195.75 M298.98 119.46 L311.98 119.46 M298.98 43.16 L311.98 43.16 " style="fill:none;stroke:#000000;stroke-width:1;" /><path d="M0.00 195.75 L650.00 195.75 " style="fill:none;stroke:#000000;stroke-width:1;" /><path d="M-75.99 189.25 L-75.99 202.25 M0.31 189.25 L0.31 202.25 M76.60 189.25 L76.60 202.25 M152.89 189.25 L152.89 202.25 M229.19 189.25 L229.19 202.25 M305.48 189.25 L305.48 202.25 M381.78 189.25 L381.78 202.25 M458.07 189.25 L458.07 202.25 M534.36 189.25 L534.36 202.25 M610.66 189.25 L610.66 202.25 " style="fill:none;stroke:#000000;stroke-width:1;" /><text x="313.6074218750001" y="350.8370971679686" text-anchor="start" style="font:10px Droid Sans,Trebuchet MS,Arial,Helvetica,sans-serif;stroke:none;fill:#000000">-1</text><text x="313.6074218750001" y="274.5431518554685" text-anchor="start" style="font:10px Droid Sans,Trebuchet MS,Arial,Helvetica,sans-serif;stroke:none;fill:#000000">-0.5</text><text x="313.6074218750001" y="198.24920654296852" text-anchor="start" style="font:10px Droid Sans,Trebuchet MS,Arial,Helvetica,sans-serif;stroke:none;fill:#000000">0</text><text x="313.6074218750001" y="121.95526123046848" text-anchor="start" style="font:10px Droid Sans,Trebuchet MS,Arial,Helvetica,sans-serif;stroke:none;fill:#000000">0.5</text><text x="313.6074218750001" y="45.66131591796846" text-anchor="start" style="font:10px Droid Sans,Trebuchet MS,Arial,Helvetica,sans-serif;stroke:none;fill:#000000">1</text><text x="76.60058593749999" y="211.87420654296852" text-anchor="middle" style="font:10px Droid Sans,Trebuchet MS,Arial,Helvetica,sans-serif;stroke:none;fill:#000000">-1.5</text><text x="152.89453125" y="211.87420654296852" text-anchor="middle" style="font:10px Droid Sans,Trebuchet MS,Arial,Helvetica,sans-serif;stroke:none;fill:#000000">-1</text><text x="229.18847656250009" y="211.87420654296852" text-anchor="middle" style="font:10px Droid Sans,Trebuchet MS,Arial,Helvetica,sans-serif;stroke:none;fill:#000000">-0.5</text><text x="305.4824218750001" y="211.87420654296852" text-anchor="middle" style="font:10px Droid Sans,Trebuchet MS,Arial,Helvetica,sans-serif;stroke:none;fill:#000000">0</text><text x="381.77636718750017" y="211.87420654296852" text-anchor="middle" style="font:10px Droid Sans,Trebuchet MS,Arial,Helvetica,sans-serif;stroke:none;fill:#000000">0.5</text><text x="458.07031250000017" y="211.87420654296852" text-anchor="middle" style="font:10px Droid Sans,Trebuchet MS,Arial,Helvetica,sans-serif;stroke:none;fill:#000000">1</text><text x="534.3642578125002" y="211.87420654296852" text-anchor="middle" style="font:10px Droid Sans,Trebuchet MS,Arial,Helvetica,sans-serif;stroke:none;fill:#000000">1.5</text><text x="610.6582031250002" y="211.87420654296852" text-anchor="middle" style="font:10px Droid Sans,Trebuchet MS,Arial,Helvetica,sans-serif;stroke:none;fill:#000000">2</text><path d="M305.48 195.75 L305.48 195.75 L311.58 195.69 L317.67 195.51 L323.74 195.20 L329.77 194.78 L335.76 194.23 L341.69 193.57 L347.55 192.80 L353.33 191.91 L359.02 190.92 L364.61 189.82 L370.08 188.61 L375.44 187.31 L380.66 185.92 L385.74 184.44 L390.67 182.87 L395.44 181.23 L400.05 179.52 L404.47 177.74 L408.71 175.90 L412.76 174.00 L416.61 172.06 L420.25 170.08 L423.68 168.07 L426.90 166.04 L429.89 163.98 L432.65 161.92 L435.18 159.85 L437.48 157.79 L439.53 155.75 L441.35 153.72 L442.92 151.72 L444.24 149.77 L445.32 147.85 L446.15 145.99 L446.73 144.19 L447.07 142.46 L447.16 140.80 L447.00 139.22 L446.60 137.74 L445.97 136.35 L445.09 135.07 L443.98 133.90 L442.64 132.85 L441.07 131.92 L439.29 131.11 L437.28 130.45 L435.07 129.92 L432.66 129.54 L430.05 129.31 L427.25 129.23 L424.26 129.31 L421.10 129.55 L417.78 129.95 L414.29 130.53 L410.66 131.27 L406.88 132.18 L402.97 133.26 L398.94 134.52 L394.80 135.95 L390.55 137.55 L386.21 139.33 L381.78 141.28 L377.28 143.40 L372.72 145.69 L368.10 148.15 L363.44 150.77 L358.75 153.55 L354.03 156.49 L349.31 159.58 L344.58 162.82 L339.86 166.20 L335.15 169.73 L330.47 173.38 L325.83 177.17 L321.24 181.07 L316.70 185.09 L312.23 189.21 L307.82 193.43 L303.51 197.74 L299.28 202.14 L295.15 206.61 L291.12 211.14 L287.21 215.73 L283.41 220.37 L279.75 225.04 L276.21 229.75 L272.82 234.47 L269.56 239.20 L266.46 243.93 L263.51 248.64 L260.72 253.34 L258.08 258.00 L255.61 262.62 L253.31 267.19 L251.18 271.69 L249.21 276.12 L247.42 280.47 L245.80 284.73 L244.36 288.88 L243.09 292.92 L241.99 296.84 L241.07 300.63 L240.31 304.27 L239.73 307.77 L239.31 311.11 L239.06 314.28 L238.96 317.28 L239.03 320.10 L239.25 322.72 L239.62 325.16 L240.13 327.38 L240.79 329.40 L241.58 331.21 L242.50 332.79 L243.55 334.15 L244.71 335.28 L245.98 336.17 L247.36 336.83 L248.84 337.25 L250.40 337.42 L252.05 337.35 L253.78 337.04 L255.58 336.47 L257.43 335.66 L259.34 334.60 L261.30 333.30 L263.29 331.75 L265.32 329.95 L267.36 327.92 L269.42 325.64 L271.49 323.13 L273.55 320.38 L275.61 317.41 L277.64 314.22 L279.66 310.80 L281.64 307.17 L283.58 303.34 L285.48 299.31 L287.33 295.08 L289.11 290.67 L290.83 286.08 L292.48 281.33 L294.05 276.41 L295.54 271.34 L296.94 266.13 L298.25 260.78 L299.46 255.31 L300.57 249.73 L301.57 244.05 L302.47 238.28 L303.25 232.42 L303.92 226.50 L304.47 220.52 L304.91 214.49 L305.22 208.42 L305.41 202.34 L305.48 196.24 L305.43 190.13 L305.26 184.04 L304.96 177.97 L304.55 171.94 L304.01 165.95 L303.36 160.01 L302.60 154.15 L301.72 148.36 L300.73 142.66 L299.64 137.07 L298.45 131.58 L297.15 126.22 L295.77 120.98 L294.29 115.89 L292.73 110.95 L291.10 106.16 L289.39 101.55 L287.61 97.11 L285.78 92.85 L283.89 88.79 L281.95 84.92 L279.98 81.26 L277.97 77.81 L275.93 74.58 L273.88 71.57 L271.82 68.79 L269.75 66.24 L267.69 63.93 L265.64 61.85 L263.61 60.02 L261.62 58.43 L259.65 57.08 L257.73 55.99 L255.87 55.14 L254.06 54.54 L252.32 54.18 L250.66 54.07 L249.08 54.21 L247.59 54.59 L246.19 55.21 L244.90 56.06 L243.72 57.16 L242.66 58.48 L241.72 60.03 L240.91 61.79 L240.23 63.78 L239.69 65.97 L239.30 68.37 L239.05 70.97 L238.96 73.76 L239.03 76.73 L239.26 79.87 L239.65 83.19 L240.21 86.66 L240.93 90.28 L241.83 94.05 L242.90 97.94 L244.15 101.97 L245.56 106.10 L247.15 110.34 L248.92 114.68 L250.85 119.10 L252.96 123.59 L255.23 128.15 L257.68 132.76 L260.28 137.42 L263.05 142.11 L265.98 146.82 L269.06 151.55 L272.29 156.28 L275.66 161.00 L279.18 165.71 L282.82 170.39 L286.60 175.03 L290.49 179.63 L294.50 184.17 L298.61 188.65 L302.83 193.06 L307.13 197.39 L311.52 201.62 L315.98 205.76 L320.51 209.79 L325.10 213.72 L329.73 217.52 L334.40 221.20 L339.10 224.74 L343.82 228.15 L348.55 231.41 L353.28 234.53 L358.00 237.49 L362.70 240.30 L367.36 242.95 L371.99 245.43 L376.56 247.75 L381.07 249.89 L385.51 251.87 L389.86 253.67 L394.13 255.31 L398.29 256.76 L402.34 258.05 L406.27 259.16 L410.06 260.10 L413.72 260.87 L417.23 261.46 L420.58 261.89 L423.77 262.16 L426.78 262.27 L429.61 262.21 L432.26 262.01 L434.70 261.65 L436.95 261.14 L438.98 260.50 L440.80 259.72 L442.40 258.81 L443.78 257.77 L444.93 256.62 L445.84 255.36 L446.52 253.99 L446.96 252.52 L447.15 250.96 L447.10 249.31 L446.80 247.59 L446.26 245.80 L445.47 243.95 L444.43 242.04 L443.15 240.09 L441.61 238.10 L439.84 236.08 L437.82 234.03 L435.56 231.97 L433.07 229.91 L430.34 227.84 L427.39 225.79 L424.21 223.75 L420.81 221.73 L417.20 219.75 L413.39 217.80 L409.37 215.90 L405.16 214.05 L400.76 212.26 L396.19 210.54 L391.44 208.88 L386.54 207.30 L381.48 205.81 L376.28 204.40 L370.94 203.08 L365.49 201.87 L359.91 200.75 L354.24 199.74 L348.47 198.83 L342.63 198.04 L336.71 197.36 L330.73 196.80 L324.70 196.36 L318.64 196.03 L312.56 195.83 L306.45 195.75 L300.35 195.79 L294.26 195.96 L288.19 196.24 L282.15 196.65 L276.16 197.17 L270.22 197.81 L264.35 198.57 L258.55 199.44 L252.85 200.41 L247.24 201.50 L241.75 202.69 L236.37 203.97 L231.13 205.35 L226.02 206.82 L221.07 208.37 L216.27 210.00 L211.64 211.70 L207.19 213.47 L202.92 215.31 L198.84 217.19 L194.95 219.12 L191.28 221.10 L187.81 223.10 L184.56 225.14 L181.54 227.19 L178.74 229.25 L176.17 231.32 L173.84 233.38 L171.74 235.43 L169.89 237.46 L168.28 239.46 L166.92 241.42 L165.80 243.35 L164.93 245.22 L164.31 247.03 L163.93 248.77 L163.80 250.44 L163.92 252.03 L164.28 253.53 L164.88 254.93 L165.72 256.23 L166.79 257.42 L168.10 258.49 L169.63 259.44 L171.38 260.27 L173.35 260.95 L175.53 261.50 L177.91 261.91 L180.49 262.16 L183.26 262.27 L186.22 262.21 L189.35 262.00 L192.65 261.62 L196.11 261.07 L199.72 260.36 L203.47 259.48 L207.36 258.42 L211.37 257.19 L215.50 255.79 L219.73 254.21 L224.06 252.46 L228.47 250.54 L232.96 248.45 L237.52 246.18 L242.12 243.76 L246.78 241.16 L251.47 238.40 L256.18 235.49 L260.90 232.42 L265.63 229.20 L270.36 225.84 L275.07 222.34 L279.75 218.70 L284.40 214.94 L289.00 211.06 L293.55 207.06 L298.03 202.95 L302.44 198.74 L306.78 194.45 L311.02 190.06 L315.17 185.61 L319.21 181.08 L323.14 176.50 L326.95 171.87 L330.64 167.20 L334.20 162.50 L337.62 157.78 L340.89 153.05 L344.02 148.33 L347.00 143.61 L349.82 138.91 L352.47 134.24 L354.97 129.61 L357.30 125.04 L359.46 120.52 L361.45 116.08 L363.27 111.71 L364.92 107.44 L366.39 103.27 L367.69 99.21 L368.81 95.27 L369.76 91.47 L370.54 87.80 L371.16 84.27 L371.60 80.91 L371.88 77.71 L372.00 74.68 L371.96 71.84 L371.76 69.18 L371.41 66.72 L370.92 64.46 L370.29 62.40 L369.52 60.57 L368.62 58.95 L367.59 57.55 L366.45 56.39 L365.19 55.45 L363.83 54.76 L362.37 54.30 L360.82 54.09 L359.18 54.12 L357.46 54.40 L355.68 54.92 L353.83 55.69 L351.93 56.71 L349.98 57.97 L347.99 59.49 L345.97 61.24 L343.93 63.24 L341.87 65.48 L339.81 67.95 L337.74 70.66 L335.68 73.60 L333.64 76.76 L331.63 80.14 L329.64 83.73 L327.69 87.53 L325.78 91.53 L323.93 95.73 L322.13 100.11 L320.40 104.67 L318.74 109.40 L317.16 114.30 L315.66 119.34 L314.24 124.53 L312.92 129.86 L311.69 135.31 L310.57 140.87 L309.55 146.54 L308.63 152.30 L307.83 158.14 L307.14 164.05 L306.57 170.02 L306.12 176.05 L305.79 182.11 L305.58 188.19 L305.49 194.29 L305.52 200.39 L305.67 206.49 L305.95 212.56 L306.34 218.60 L306.86 224.60 L307.49 230.54 L308.24 236.42 L309.10 242.22 L310.07 247.93 L311.14 253.55 L312.32 259.05 L313.60 264.44 L314.97 269.69 L316.43 274.81 L317.98 279.78 L319.60 284.59 L321.30 289.23 L323.06 293.70 L324.89 297.98 L326.77 302.08 L328.70 305.98 L330.67 309.67 L332.68 313.15 L334.71 316.42 L336.76 319.46 L338.82 322.28 L340.88 324.87 L342.95 327.22 L345.00 329.33 L347.03 331.20 L349.03 332.83 L351.00 334.22 L352.93 335.35 L354.80 336.24 L356.62 336.88 L358.37 337.28 L360.04 337.43 L361.64 337.33 L363.15 336.99 L364.56 336.41 L365.86 335.59 L367.06 334.53 L368.14 333.25 L369.10 331.73 L369.94 330.00 L370.64 328.05 L371.20 325.89 L371.61 323.52 L371.88 320.95 L372.00 318.20 L371.96 315.26 L371.75 312.14 L371.39 308.85 L370.86 305.40 L370.16 301.80 L369.29 298.06 L368.24 294.18 L367.03 290.18 L365.64 286.06 L364.08 281.84 L362.34 277.52 L360.43 273.11 L358.35 268.63 L356.10 264.08 L353.69 259.48 L351.11 254.83 L348.36 250.14 L345.46 245.43 L342.41 240.70 L339.20 235.97 L335.85 231.25 L332.36 226.54 L328.73 221.85 L324.98 217.20 L321.10 212.60 L317.11 208.04 L313.01 203.55 L308.82 199.14 L304.53 194.80 L300.15 190.55 L295.70 186.39 L291.18 182.34 L286.60 178.40 L281.97 174.58 L277.31 170.88 L272.61 167.31 L267.89 163.88 L263.16 160.60 L258.43 157.46 L253.71 154.47 L249.01 151.63 L244.34 148.96 L239.71 146.45 L235.13 144.11 L230.61 141.94 L226.16 139.93 L221.79 138.10 L217.51 136.44 L213.33 134.96 L209.26 133.64 L205.32 132.50 L201.50 131.54 L197.82 130.74 L194.28 130.12 L190.91 129.66 L187.69 129.37 L184.65 129.24 L181.79 129.27 L179.12 129.45 L176.64 129.78 L174.36 130.26 L172.29 130.89 L170.44 131.65 L168.80 132.54 L167.39 133.55 L166.20 134.69 L165.25 135.93 L164.54 137.29 L164.06 138.74 L163.83 140.29 L163.84 141.92 L164.10 143.63 L164.60 145.41 L165.35 147.25 L166.35 149.15 L167.60 151.10 L169.09 153.08 L170.83 155.10 L172.81 157.14 L175.03 159.20 L177.48 161.26 L180.17 163.33 L183.09 165.38 L186.23 167.43 L189.60 169.45 L193.17 171.44 L196.96 173.39 L200.94 175.30 L205.12 177.16 L209.49 178.96 L214.04 180.69 L218.75 182.36 L223.64 183.95 L228.67 185.46 L233.85 186.88 L239.16 188.21 L244.60 189.44 L250.16 190.58 L255.81 191.61 L261.57 192.53 L267.40 193.34 L273.31 194.04 L279.28 194.62 L285.30 195.08 L291.36 195.42 L297.44 195.64 L303.54 195.74 " style="fill:none;stroke:#0080cc;stroke-width:1;" /><path d="M458.07 195.75 L458.07 195.75 L458.06 194.22 L458.04 192.70 L458.00 191.17 L457.95 189.65 L457.88 188.12 L457.80 186.60 L457.70 185.08 L457.58 183.56 L457.45 182.03 L457.31 180.52 L457.15 179.00 L456.97 177.48 L456.78 175.97 L456.58 174.46 L456.36 172.95 L456.12 171.44 L455.87 169.93 L455.61 168.43 L455.32 166.93 L455.03 165.43 L454.72 163.94 L454.39 162.45 L454.05 160.96 L453.70 159.48 L453.33 158.00 L452.94 156.52 L452.54 155.05 L452.13 153.58 L451.70 152.12 L451.26 150.66 L450.80 149.20 L450.32 147.75 L449.84 146.30 L449.34 144.86 L448.82 143.43 L448.29 142.00 L447.74 140.57 L447.19 139.15 L446.61 137.74 L446.03 136.33 L445.42 134.93 L444.81 133.53 L444.18 132.14 L443.54 130.76 L442.88 129.38 L442.21 128.01 L441.52 126.64 L440.83 125.29 L440.12 123.94 L439.39 122.59 L438.65 121.26 L437.90 119.93 L437.14 118.61 L436.36 117.30 L435.57 115.99 L434.76 114.70 L433.95 113.41 L433.12 112.13 L432.27 110.86 L431.42 109.59 L430.55 108.34 L429.67 107.09 L428.78 105.85 L427.87 104.62 L426.96 103.41 L426.03 102.19 L425.08 100.99 L424.13 99.80 L423.17 98.62 L422.19 97.45 L421.20 96.29 L420.20 95.14 L419.19 93.99 L418.16 92.86 L417.13 91.74 L416.08 90.63 L415.03 89.53 L413.96 88.44 L412.88 87.36 L411.79 86.29 L410.69 85.23 L409.58 84.19 L408.46 83.15 L407.33 82.13 L406.19 81.11 L405.04 80.11 L403.88 79.12 L402.70 78.14 L401.52 77.18 L400.33 76.22 L399.13 75.28 L397.92 74.35 L396.70 73.43 L395.48 72.53 L394.24 71.63 L392.99 70.75 L391.74 69.88 L390.48 69.03 L389.21 68.18 L387.93 67.35 L386.64 66.53 L385.34 65.73 L384.04 64.94 L382.73 64.16 L381.41 63.39 L380.08 62.64 L378.74 61.90 L377.40 61.17 L376.05 60.46 L374.70 59.76 L373.33 59.08 L371.96 58.40 L370.59 57.75 L369.20 57.10 L367.81 56.47 L366.42 55.86 L365.01 55.25 L363.61 54.67 L362.19 54.09 L360.77 53.53 L359.35 52.99 L357.92 52.45 L356.48 51.94 L355.04 51.43 L353.60 50.95 L352.15 50.47 L350.69 50.01 L349.23 49.57 L347.77 49.14 L346.30 48.72 L344.83 48.32 L343.35 47.94 L341.87 47.56 L340.39 47.21 L338.90 46.87 L337.41 46.54 L335.92 46.23 L334.42 45.93 L332.92 45.65 L331.42 45.38 L329.91 45.13 L328.41 44.89 L326.90 44.67 L325.38 44.46 L323.87 44.27 L322.35 44.10 L320.84 43.94 L319.32 43.79 L317.80 43.66 L316.28 43.54 L314.75 43.44 L313.23 43.36 L311.71 43.29 L310.18 43.23 L308.66 43.19 L307.13 43.17 L305.60 43.16 L304.08 43.17 L302.55 43.19 L301.03 43.23 L299.50 43.28 L297.98 43.35 L296.45 43.43 L294.93 43.53 L293.41 43.64 L291.89 43.77 L290.37 43.91 L288.85 44.07 L287.34 44.24 L285.82 44.43 L284.31 44.64 L282.80 44.86 L281.29 45.09 L279.79 45.34 L278.28 45.60 L276.78 45.88 L275.29 46.18 L273.79 46.49 L272.30 46.81 L270.81 47.15 L269.33 47.51 L267.85 47.87 L266.37 48.26 L264.90 48.66 L263.43 49.07 L261.97 49.50 L260.51 49.94 L259.05 50.40 L257.60 50.87 L256.15 51.36 L254.71 51.86 L253.27 52.37 L251.84 52.90 L250.42 53.44 L249.00 54.00 L247.58 54.57 L246.17 55.16 L244.77 55.76 L243.37 56.37 L241.98 57.00 L240.60 57.64 L239.22 58.30 L237.85 58.97 L236.49 59.65 L235.13 60.35 L233.78 61.06 L232.43 61.78 L231.10 62.52 L229.77 63.27 L228.45 64.03 L227.14 64.81 L225.83 65.60 L224.53 66.40 L223.24 67.22 L221.96 68.05 L220.69 68.89 L219.43 69.74 L218.17 70.61 L216.92 71.49 L215.68 72.38 L214.46 73.29 L213.24 74.20 L212.02 75.13 L210.82 76.07 L209.63 77.02 L208.45 77.99 L207.28 78.97 L206.11 79.95 L204.96 80.95 L203.82 81.96 L202.68 82.99 L201.56 84.02 L200.45 85.06 L199.35 86.12 L198.26 87.19 L197.18 88.26 L196.11 89.35 L195.05 90.45 L194.00 91.56 L192.97 92.68 L191.94 93.81 L190.93 94.95 L189.92 96.10 L188.93 97.26 L187.95 98.43 L186.99 99.61 L186.03 100.80 L185.09 102.00 L184.16 103.21 L183.24 104.43 L182.33 105.66 L181.44 106.89 L180.55 108.14 L179.68 109.39 L178.83 110.65 L177.98 111.92 L177.15 113.20 L176.33 114.49 L175.52 115.79 L174.73 117.09 L173.95 118.40 L173.18 119.72 L172.43 121.05 L171.69 122.38 L170.96 123.72 L170.25 125.07 L169.55 126.43 L168.86 127.79 L168.19 129.16 L167.53 130.54 L166.89 131.92 L166.26 133.31 L165.64 134.70 L165.03 136.10 L164.45 137.51 L163.87 138.93 L163.31 140.34 L162.76 141.77 L162.23 143.20 L161.71 144.63 L161.21 146.07 L160.72 147.52 L160.24 148.97 L159.78 150.42 L159.34 151.88 L158.90 153.35 L158.49 154.82 L158.09 156.29 L157.70 157.76 L157.33 159.24 L156.97 160.73 L156.63 162.21 L156.30 163.70 L155.98 165.20 L155.69 166.69 L155.40 168.19 L155.14 169.69 L154.88 171.20 L154.64 172.71 L154.42 174.22 L154.21 175.73 L154.02 177.24 L153.84 178.76 L153.68 180.27 L153.53 181.79 L153.40 183.31 L153.29 184.83 L153.18 186.36 L153.10 187.88 L153.03 189.40 L152.97 190.93 L152.93 192.45 L152.90 193.98 L152.89 195.51 L152.90 197.03 L152.92 198.56 L152.96 200.08 L153.01 201.61 L153.07 203.13 L153.15 204.66 L153.25 206.18 L153.36 207.70 L153.49 209.22 L153.63 210.74 L153.79 212.26 L153.96 213.77 L154.15 215.29 L154.35 216.80 L154.57 218.31 L154.80 219.82 L155.05 221.32 L155.32 222.83 L155.59 224.33 L155.89 225.83 L156.20 227.32 L156.52 228.81 L156.86 230.30 L157.21 231.78 L157.58 233.26 L157.96 234.74 L158.36 236.21 L158.77 237.68 L159.20 239.15 L159.64 240.61 L160.09 242.07 L160.56 243.52 L161.05 244.96 L161.55 246.41 L162.06 247.84 L162.59 249.27 L163.13 250.70 L163.69 252.12 L164.26 253.54 L164.85 254.95 L165.44 256.35 L166.06 257.75 L166.68 259.14 L167.32 260.52 L167.98 261.90 L168.65 263.27 L169.33 264.64 L170.03 266.00 L170.73 267.35 L171.46 268.69 L172.19 270.03 L172.94 271.36 L173.71 272.68 L174.48 273.99 L175.27 275.30 L176.07 276.60 L176.89 277.89 L177.72 279.17 L178.56 280.44 L179.41 281.71 L180.28 282.96 L181.15 284.21 L182.04 285.45 L182.95 286.68 L183.86 287.90 L184.79 289.11 L185.73 290.31 L186.68 291.51 L187.65 292.69 L188.62 293.86 L189.61 295.03 L190.61 296.18 L191.62 297.32 L192.64 298.46 L193.67 299.58 L194.71 300.69 L195.77 301.80 L196.83 302.89 L197.91 303.97 L199.00 305.04 L200.10 306.10 L201.21 307.15 L202.33 308.18 L203.45 309.21 L204.59 310.22 L205.74 311.23 L206.90 312.22 L208.07 313.20 L209.25 314.17 L210.44 315.12 L211.64 316.07 L212.85 317.00 L214.07 317.92 L215.29 318.83 L216.53 319.73 L217.77 320.61 L219.02 321.48 L220.29 322.34 L221.56 323.18 L222.83 324.02 L224.12 324.84 L225.42 325.64 L226.72 326.44 L228.03 327.22 L229.35 327.99 L230.67 328.74 L232.01 329.48 L233.35 330.21 L234.70 330.93 L236.05 331.63 L237.41 332.31 L238.78 332.99 L240.16 333.65 L241.54 334.29 L242.93 334.93 L244.33 335.55 L245.73 336.15 L247.13 336.74 L248.55 337.32 L249.96 337.88 L251.39 338.43 L252.82 338.96 L254.25 339.48 L255.69 339.99 L257.14 340.48 L258.59 340.95 L260.04 341.41 L261.50 341.86 L262.96 342.29 L264.43 342.71 L265.90 343.11 L267.38 343.50 L268.86 343.88 L270.34 344.24 L271.83 344.58 L273.32 344.91 L274.81 345.22 L276.31 345.52 L277.81 345.81 L279.31 346.08 L280.81 346.33 L282.32 346.57 L283.83 346.79 L285.34 347.00 L286.85 347.20 L288.37 347.37 L289.89 347.54 L291.41 347.69 L292.93 347.82 L294.45 347.94 L295.97 348.04 L297.49 348.13 L299.02 348.20 L300.54 348.26 L302.07 348.30 L303.59 348.33 L305.12 348.34 L306.64 348.33 L308.17 348.31 L309.69 348.28 L311.22 348.23 L312.74 348.16 L314.27 348.08 L315.79 347.99 L317.31 347.88 L318.83 347.75 L320.35 347.61 L321.87 347.45 L323.39 347.28 L324.90 347.10 L326.41 346.89 L327.92 346.68 L329.43 346.45 L330.94 346.20 L332.44 345.94 L333.94 345.66 L335.44 345.37 L336.93 345.06 L338.43 344.74 L339.91 344.40 L341.40 344.05 L342.88 343.68 L344.36 343.30 L345.83 342.91 L347.30 342.49 L348.77 342.07 L350.23 341.63 L351.68 341.17 L353.14 340.71 L354.58 340.22 L356.02 339.72 L357.46 339.21 L358.89 338.68 L360.32 338.14 L361.74 337.59 L363.16 337.02 L364.57 336.43 L365.97 335.84 L367.37 335.22 L368.76 334.60 L370.15 333.96 L371.52 333.30 L372.90 332.64 L374.26 331.96 L375.62 331.26 L376.97 330.55 L378.32 329.83 L379.65 329.10 L380.98 328.35 L382.31 327.59 L383.62 326.81 L384.93 326.02 L386.23 325.22 L387.52 324.41 L388.80 323.58 L390.07 322.74 L391.34 321.89 L392.60 321.03 L393.84 320.15 L395.08 319.26 L396.31 318.36 L397.54 317.44 L398.75 316.52 L399.95 315.58 L401.14 314.63 L402.33 313.66 L403.50 312.69 L404.67 311.70 L405.82 310.71 L406.97 309.70 L408.10 308.68 L409.23 307.64 L410.34 306.60 L411.44 305.55 L412.53 304.48 L413.62 303.41 L414.69 302.32 L415.75 301.22 L416.80 300.11 L417.84 299.00 L418.86 297.87 L419.88 296.73 L420.88 295.58 L421.87 294.42 L422.86 293.25 L423.82 292.07 L424.78 290.88 L425.73 289.69 L426.66 288.48 L427.58 287.26 L428.49 286.04 L429.39 284.80 L430.27 283.56 L431.14 282.31 L432.00 281.05 L432.85 279.78 L433.68 278.50 L434.50 277.21 L435.31 275.92 L436.11 274.62 L436.89 273.31 L437.66 271.99 L438.41 270.66 L439.16 269.33 L439.89 267.99 L440.60 266.64 L441.30 265.29 L441.99 263.93 L442.67 262.56 L443.33 261.18 L443.98 259.80 L444.61 258.41 L445.23 257.02 L445.84 255.62 L446.43 254.21 L447.00 252.80 L447.57 251.38 L448.12 249.96 L448.65 248.53 L449.17 247.09 L449.68 245.65 L450.17 244.21 L450.65 242.76 L451.11 241.31 L451.56 239.85 L451.99 238.38 L452.41 236.92 L452.82 235.45 L453.21 233.97 L453.58 232.49 L453.94 231.01 L454.29 229.52 L454.62 228.03 L454.93 226.54 L455.23 225.04 L455.52 223.54 L455.79 222.04 L456.04 220.54 L456.28 219.03 L456.51 217.52 L456.72 216.01 L456.91 214.50 L457.09 212.98 L457.26 211.47 L457.41 209.95 L457.54 208.43 L457.66 206.91 L457.77 205.38 L457.85 203.86 L457.93 202.34 L457.99 200.81 L458.03 199.29 L458.06 197.76 L458.07 196.24 " style="fill:none;stroke:#ff0000;stroke-width:1;" /></g></svg>