<?xml version="1.0" standalone="no"?><!DOCTYPE svg PUBLIC "-//W3C//DTD SVG 1.1//EN" "http://www.w3.org/Graphics/SVG/1.1/DTD/svg11.dtd"><svg xmlns="http://www.w3.org/2000/svg" viewBox="0 0 650 400" version="1.1"><clipPath id="box"><rect x="0" y="0" width="650" height="400" style="fill:none;stroke:none;" /></clipPath><g clip-path="url(#box)"><rect x="0.00" y="0.00" width="650.00" height="400.00" style="fill:#FFFFFF;stroke:none;" /><path d="M0.00 384.00 L650.00 384.00 M0.00 333.00 L650.00 333.00 M0.00 281.00 L650.00 281.00 M0.00 230.00 L650.00 230.00 M0.00 179.00 L650.00 179.00 M0.00 128.00 L650.00 128.00 M0.00 77.00 L650.00 77.00 M0.00 25.00 L650.00 25.00 M12.00 0.00 L12.00 400.00 M63.00 0.00 L63.00 400.00 M115.00 0.00 L115.00 400.00 M166.00 0.00 L166.00 400.00 M217.00 0.00 L217.00 400.00 M268.00 0.00 L268.00 400.00 M319.00 0.00 L319.00 400.00 M371.00 0.00 L371.00 400.00 M422.00 0.00 L422.00 400.00 M473.00 0.00 L473.00 400.00 M524.00 0.00 L524.00 400.00 M575.00 0.00 L575.00 400.00 M627.00 0.00 L627.00 400.00 " style="fill:none;stroke:#D0D0D0;stroke-width:1;" /><path d="M319.88 0.00 L319.88 400.00 " style="fill:none;stroke:#000000;stroke-width:1;" /><path d="M313.38 435.52 L326.38 435.52 M313.38 384.32 L326.38 384.32 M313.38 333.12 L326.38 333.12 M313.38 281.92 L326.38 281.92 M313.38 230.72 L326.38 230.72 M313.38 179.52 L326.38 179.52 M313.38 128.32 L326.38 128.32 M313.38 77.12 L326.38 77.12 M313.38 25.92 L326.38 25.92 " style="fill:none;stroke:#000000;stroke-width:1;" /><path d="M0.00 128.32 L650.00 128.32 " style="fill:none;stroke:#000000;stroke-width:1;" /><path d="M-38.52 121.82 L-38.52 134.82 M12.68 121.82 L12.68 134.82 M63.88 121.82 L63.88 134.82 M115.08 121.82 L115.08 134.82 M166.28 121.82 L166.28 134.82 M217.48 121.82 L217.48 134.82 M268.68 121.82 L268.68 134.82 M319.88 121.82 L319.88 134.82 M371.08 121.82 L371.08 134.82 M422.28 121.82 L422.28 134.82 M473.48 121.82 L473.48 134.82 M524.68 121.82 L524.68 134.82 M575.88 121.82 L575.88 134.82 M627.08 121.82 L627.08 134.82 " style="fill:none;stroke:#000000;stroke-width:1;" /><text x="328.005" y="386.82000000000005" text-anchor="start" style="font:10px Droid Sans,Trebuchet MS,Arial,Helvetica,sans-serif;stroke:none;fill:#000000">-10</text><text x="328.005" y="335.62" text-anchor="start" style="font:10px Droid Sans,Trebuchet MS,Arial,Helvetica,sans-serif;stroke:none;fill:#000000">-8</text><text x="328.005" y="284.42" text-anchor="start" style="font:10px Droid Sans,Trebuchet MS,Arial,Helvetica,sans-serif;stroke:none;fill:#000000">-6</text><text x="328.005" y="233.22" text-anchor="start" style="font:10px Droid Sans,Trebuchet MS,Arial,Helvetica,sans-serif;stroke:none;fill:#000000">-4</text><text x="328.005" y="182.01999999999998" text-anchor="start" style="font:10px Droid Sans,Trebuchet MS,Arial,Helvetica,sans-serif;stroke:none;fill:#000000">-2</text><text x="328.005" y="130.81999999999996" text-anchor="start" style="font:10px Droid Sans,Trebuchet MS,Arial,Helvetica,sans-serif;stroke:none;fill:#000000">0</text><text x="328.005" y="79.61999999999996" text-anchor="start" style="font:10px Droid Sans,Trebuchet MS,Arial,Helvetica,sans-serif;stroke:none;fill:#000000">2</text><text x="328.005" y="28.419999999999945" text-anchor="start" style="font:10px Droid Sans,Trebuchet MS,Arial,Helvetica,sans-serif;stroke:none;fill:#000000">4</text><text x="12.679999999999973" y="144.44499999999996" text-anchor="middle" style="font:10px Droid Sans,Trebuchet MS,Arial,Helvetica,sans-serif;stroke:none;fill:#000000">-12</text><text x="63.87999999999998" y="144.44499999999996" text-anchor="middle" style="font:10px Droid Sans,Trebuchet MS,Arial,Helvetica,sans-serif;stroke:none;fill:#000000">-10</text><text x="115.07999999999998" y="144.44499999999996" text-anchor="middle" style="font:10px Droid Sans,Trebuchet MS,Arial,Helvetica,sans-serif;stroke:none;fill:#000000">-8</text><text x="166.28" y="144.44499999999996" text-anchor="middle" style="font:10px Droid Sans,Trebuchet MS,Arial,Helvetica,sans-serif;stroke:none;fill:#000000">-6</text><text x="217.48" y="144.44499999999996" text-anchor="middle" style="font:10px Droid Sans,Trebuchet MS,Arial,Helvetica,sans-serif;stroke:none;fill:#000000">-4</text><text x="268.68" y="144.44499999999996" text-anchor="middle" style="font:10px Droid Sans,Trebuchet MS,Arial,Helvetica,sans-serif;stroke:none;fill:#000000">-2</text><text x="319.88" y="144.44499999999996" text-anchor="middle" style="font:10px Droid Sans,Trebuchet MS,Arial,Helvetica,sans-serif;stroke:none;fill:#000000">0</text><text x="371.08" y="144.44499999999996" text-anchor="middle" style="font:10px Droid Sans,Trebuchet MS,Arial,Helvetica,sans-serif;stroke:none;fill:#000000">2</text><text x="422.28" y="144.44499999999996" text-anchor="middle" style="font:10px Droid Sans,Trebuchet MS,Arial,Helvetica,sans-serif;stroke:none;fill:#000000">4</text><text x="473.48" y="144.44499999999996" text-anchor="middle" style="font:10px Droid Sans,Trebuchet MS,Arial,Helvetica,sans-serif;stroke:none;fill:#000000">6</text><text x="524.6800000000001" y="144.44499999999996" text-anchor="middle" style="font:10px Droid Sans,Trebuchet MS,Arial,Helvetica,sans-serif;stroke:none;fill:#000000">8</text><text x="575.88" y="144.44499999999996" text-anchor="middle" style="font:10px Droid Sans,Trebuchet MS,Arial,Helvetica,sans-serif;stroke:none;fill:#000000">10</text><text x="627.08" y="144.44499999999996" text-anchor="middle" style="font:10px Droid Sans,Trebuchet MS,Arial,Helvetica,sans-serif;stroke:none;fill:#000000">12</text><path d="M396.68 128.32 L396.68 128.32 L396.07 127.56 L395.44 126.81 L394.81 126.07 L394.17 125.35 L393.52 124.63 L392.87 123.94 L392.20 123.25 L391.53 122.58 L390.85 121.92 L390.16 121.27 L389.46 120.63 L388.76 120.01 L388.05 119.41 L387.34 118.81 L386.62 118.23 L385.89 117.67 L385.16 117.11 L384.43 116.57 L383.68 116.05 L382.94 115.54 L382.19 115.04 L381.44 114.56 L380.68 114.08 L379.92 113.63 L379.15 113.19 L378.39 112.76 L377.62 112.34 L376.84 111.94 L376.07 111.55 L375.29 111.18 L374.52 110.82 L373.74 110.47 L372.96 110.14 L372.18 109.82 L371.40 109.51 L370.62 109.22 L369.84 108.94 L369.06 108.68 L368.28 108.43 L367.50 108.19 L366.72 107.96 L365.95 107.75 L365.17 107.55 L364.40 107.36 L363.63 107.19 L362.86 107.02 L362.10 106.88 L361.33 106.74 L360.57 106.61 L359.82 106.50 L359.07 106.40 L358.32 106.31 L357.57 106.24 L356.83 106.17 L356.09 106.12 L355.36 106.07 L354.63 106.04 L353.91 106.02 L353.19 106.01 L352.48 106.02 L351.78 106.03 L351.08 106.05 L350.38 106.08 L349.69 106.12 L349.01 106.18 L348.33 106.24 L347.66 106.31 L347.00 106.39 L346.34 106.48 L345.69 106.58 L345.05 106.68 L344.42 106.80 L343.79 106.92 L343.17 107.05 L342.56 107.19 L341.95 107.34 L341.35 107.50 L340.77 107.66 L340.18 107.83 L339.61 108.00 L339.05 108.19 L338.49 108.37 L337.94 108.57 L337.40 108.77 L336.87 108.98 L336.35 109.19 L335.84 109.41 L335.33 109.63 L334.83 109.86 L334.35 110.09 L333.87 110.33 L333.40 110.57 L332.94 110.81 L332.49 111.06 L332.04 111.31 L331.61 111.57 L331.18 111.83 L330.77 112.09 L330.36 112.35 L329.96 112.62 L329.57 112.89 L329.19 113.16 L328.82 113.43 L328.46 113.71 L328.10 113.98 L327.76 114.26 L327.42 114.54 L327.10 114.82 L326.78 115.10 L326.47 115.38 L326.17 115.66 L325.87 115.94 L325.59 116.22 L325.31 116.50 L325.04 116.78 L324.78 117.06 L324.53 117.34 L324.29 117.62 L324.05 117.89 L323.83 118.17 L323.61 118.44 L323.39 118.72 L323.19 118.99 L322.99 119.26 L322.80 119.52 L322.62 119.79 L322.44 120.05 L322.28 120.31 L322.11 120.57 L321.96 120.83 L321.81 121.08 L321.67 121.33 L321.53 121.58 L321.41 121.83 L321.28 122.07 L321.17 122.31 L321.05 122.55 L320.95 122.79 L320.85 123.02 L320.75 123.25 L320.66 123.48 L320.58 123.71 L320.50 123.94 L320.43 124.16 L320.36 124.39 L320.29 124.61 L320.23 124.83 L320.18 125.06 L320.13 125.29 L320.08 125.52 L320.04 125.76 L320.00 126.01 L319.96 126.27 L319.93 126.56 L319.91 126.88 L319.89 127.29 L319.88 128.04 L319.87 127.37 L319.85 126.94 L319.83 126.61 L319.80 126.31 L319.77 126.05 L319.73 125.80 L319.69 125.56 L319.64 125.32 L319.59 125.10 L319.54 124.87 L319.48 124.65 L319.41 124.42 L319.34 124.20 L319.27 123.97 L319.19 123.75 L319.11 123.52 L319.02 123.29 L318.93 123.06 L318.83 122.83 L318.72 122.59 L318.61 122.35 L318.50 122.11 L318.37 121.87 L318.25 121.62 L318.11 121.37 L317.97 121.12 L317.82 120.87 L317.67 120.61 L317.51 120.35 L317.34 120.09 L317.17 119.83 L316.99 119.57 L316.80 119.30 L316.60 119.03 L316.40 118.76 L316.19 118.49 L315.97 118.21 L315.74 117.94 L315.51 117.66 L315.27 117.38 L315.02 117.10 L314.76 116.82 L314.49 116.54 L314.22 116.26 L313.93 115.98 L313.64 115.70 L313.34 115.42 L313.03 115.14 L312.71 114.86 L312.39 114.58 L312.05 114.30 L311.71 114.03 L311.36 113.75 L311.00 113.47 L310.63 113.20 L310.25 112.93 L309.86 112.66 L309.46 112.39 L309.06 112.13 L308.64 111.87 L308.22 111.61 L307.79 111.35 L307.34 111.10 L306.89 110.85 L306.43 110.60 L305.97 110.36 L305.49 110.13 L305.00 109.89 L304.51 109.67 L304.00 109.44 L303.49 109.22 L302.97 109.01 L302.44 108.80 L301.90 108.60 L301.36 108.41 L300.80 108.22 L300.24 108.03 L299.67 107.86 L299.09 107.68 L298.50 107.52 L297.90 107.37 L297.30 107.22 L296.69 107.08 L296.07 106.94 L295.44 106.82 L294.81 106.70 L294.17 106.59 L293.52 106.49 L292.87 106.40 L292.20 106.32 L291.53 106.25 L290.86 106.19 L290.18 106.13 L289.49 106.09 L288.80 106.05 L288.10 106.03 L287.39 106.02 L286.68 106.01 L285.96 106.02 L285.24 106.04 L284.51 106.07 L283.78 106.11 L283.05 106.16 L282.31 106.22 L281.56 106.30 L280.81 106.39 L280.06 106.48 L279.31 106.60 L278.55 106.72 L277.79 106.85 L277.02 107.00 L276.25 107.16 L275.48 107.33 L274.71 107.52 L273.94 107.71 L273.16 107.93 L272.38 108.15 L271.60 108.39 L270.83 108.64 L270.05 108.90 L269.27 109.18 L268.48 109.47 L267.70 109.77 L266.92 110.09 L266.15 110.42 L265.37 110.76 L264.59 111.12 L263.81 111.49 L263.04 111.88 L262.27 112.28 L261.50 112.69 L260.73 113.12 L259.97 113.56 L259.20 114.01 L258.45 114.48 L257.69 114.96 L256.94 115.46 L256.19 115.97 L255.45 116.49 L254.71 117.03 L253.98 117.58 L253.26 118.14 L252.53 118.72 L251.82 119.31 L251.11 119.92 L250.41 120.53 L249.71 121.17 L249.02 121.81 L248.34 122.47 L247.66 123.14 L247.00 123.83 L246.34 124.52 L245.69 125.23 L245.05 125.96 L244.41 126.69 L243.79 127.44 L243.18 128.20 L242.57 128.97 L241.98 129.75 L241.39 130.55 L240.82 131.36 L240.26 132.18 L239.70 133.01 L239.16 133.85 L238.63 134.70 L238.11 135.57 L237.61 136.44 L237.11 137.33 L236.63 138.22 L236.16 139.13 L235.70 140.05 L235.26 140.97 L234.83 141.91 L234.41 142.85 L234.00 143.81 L233.61 144.77 L233.24 145.74 L232.87 146.72 L232.53 147.71 L232.19 148.70 L231.87 149.71 L231.57 150.72 L231.28 151.74 L231.01 152.76 L230.75 153.80 L230.51 154.84 L230.28 155.88 L230.07 156.93 L229.87 157.99 L229.69 159.05 L229.53 160.12 L229.38 161.19 L229.25 162.27 L229.13 163.35 L229.03 164.44 L228.95 165.53 L228.88 166.62 L228.84 167.72 L228.80 168.82 L228.79 169.92 L228.79 171.03 L228.81 172.13 L228.84 173.24 L228.90 174.35 L228.97 175.47 L229.05 176.58 L229.16 177.70 L229.28 178.81 L229.41 179.93 L229.57 181.04 L229.74 182.16 L229.93 183.27 L230.13 184.39 L230.36 185.50 L230.60 186.61 L230.85 187.72 L231.13 188.83 L231.42 189.94 L231.72 191.04 L232.05 192.15 L232.39 193.25 L232.74 194.34 L233.12 195.44 L233.51 196.53 L233.91 197.61 L234.33 198.70 L234.77 199.78 L235.22 200.85 L235.69 201.92 L236.18 202.99 L236.68 204.05 L237.19 205.11 L237.72 206.16 L238.27 207.21 L238.83 208.25 L239.40 209.28 L239.99 210.31 L240.60 211.34 L241.22 212.36 L241.85 213.37 L242.50 214.38 L243.16 215.38 L243.83 216.37 L244.52 217.36 L245.22 218.34 L245.93 219.32 L246.66 220.29 L247.40 221.25 L248.15 222.20 L248.92 223.15 L249.70 224.10 L250.49 225.03 L251.29 225.96 L252.10 226.89 L252.93 227.80 L253.76 228.71 L254.61 229.62 L255.47 230.51 L256.34 231.40 L257.22 232.29 L258.11 233.17 L259.01 234.04 L259.93 234.90 L260.85 235.76 L261.78 236.62 L262.73 237.47 L263.68 238.31 L264.64 239.15 L265.61 239.98 L266.60 240.80 L267.59 241.62 L268.59 242.44 L269.60 243.25 L270.62 244.06 L271.65 244.86 L272.69 245.66 L273.74 246.45 L274.79 247.24 L275.86 248.02 L276.94 248.80 L278.02 249.58 L279.11 250.36 L280.22 251.13 L281.33 251.90 L282.45 252.66 L283.58 253.43 L284.72 254.19 L285.87 254.95 L287.03 255.71 L288.20 256.47 L289.37 257.22 L290.56 257.98 L291.76 258.74 L292.96 259.50 L294.18 260.26 L295.41 261.02 L296.64 261.78 L297.89 262.55 L299.15 263.33 L300.41 264.11 L301.69 264.90 L302.98 265.70 L304.28 266.51 L305.60 267.33 L306.92 268.18 L308.26 269.05 L309.61 269.95 L310.97 270.89 L312.35 271.89 L313.75 272.96 L315.16 274.14 L316.58 275.48 L318.04 277.15 L319.52 279.83 L321.02 278.19 L322.49 276.23 L323.92 274.75 L325.34 273.50 L326.74 272.39 L328.13 271.36 L329.50 270.40 L330.86 269.48 L332.20 268.59 L333.53 267.74 L334.85 266.90 L336.16 266.08 L337.45 265.28 L338.74 264.48 L340.01 263.70 L341.27 262.92 L342.52 262.15 L343.77 261.38 L345.00 260.62 L346.22 259.86 L347.43 259.10 L348.63 258.34 L349.82 257.59 L351.00 256.83 L352.18 256.07 L353.34 255.31 L354.49 254.55 L355.64 253.79 L356.77 253.03 L357.90 252.26 L359.01 251.50 L360.12 250.73 L361.22 249.95 L362.31 249.18 L363.39 248.40 L364.46 247.61 L365.52 246.83 L366.57 246.04 L367.61 245.24 L368.65 244.44 L369.67 243.64 L370.69 242.83 L371.69 242.02 L372.69 241.20 L373.68 240.37 L374.66 239.54 L375.62 238.71 L376.58 237.87 L377.53 237.02 L378.47 236.17 L379.39 235.32 L380.31 234.45 L381.22 233.58 L382.12 232.71 L383.00 231.83 L383.88 230.94 L384.74 230.05 L385.59 229.14 L386.44 228.24 L387.27 227.32 L388.08 226.40 L388.89 225.48 L389.69 224.54 L390.47 223.60 L391.24 222.66 L392.00 221.71 L392.75 220.75 L393.48 219.78 L394.20 218.81 L394.91 217.83 L395.60 216.84 L396.28 215.85 L396.95 214.85 L397.60 213.85 L398.24 212.84 L398.87 211.82 L399.48 210.80 L400.08 209.78 L400.66 208.74 L401.23 207.70 L401.78 206.66 L402.32 205.61 L402.84 204.56 L403.35 203.50 L403.84 202.43 L404.32 201.36 L404.78 200.29 L405.22 199.21 L405.65 198.13 L406.06 197.05 L406.46 195.96 L406.84 194.87 L407.20 193.77 L407.55 192.67 L407.88 191.57 L408.20 190.47 L408.50 189.36 L408.78 188.25 L409.04 187.14 L409.29 186.03 L409.52 184.92 L409.73 183.81 L409.93 182.69 L410.11 181.58 L410.27 180.46 L410.42 179.34 L410.55 178.23 L410.66 177.11 L410.76 176.00 L410.83 174.89 L410.89 173.77 L410.94 172.66 L410.96 171.56 L410.97 170.45 L410.97 169.35 L410.94 168.24 L410.90 167.15 L410.84 166.05 L410.77 164.96 L410.68 163.87 L410.57 162.79 L410.45 161.71 L410.31 160.63 L410.15 159.56 L409.98 158.50 L409.79 157.44 L409.59 156.38 L409.37 155.33 L409.13 154.29 L408.88 153.26 L408.61 152.23 L408.33 151.21 L408.03 150.19 L407.72 149.18 L407.39 148.18 L407.05 147.19 L406.70 146.21 L406.33 145.23 L405.94 144.26 L405.55 143.31 L405.14 142.36 L404.71 141.42 L404.27 140.49 L403.82 139.57 L403.36 138.66 L402.88 137.75 L402.39 136.86 L401.89 135.98 L401.38 135.12 L400.85 134.26 L400.32 133.41 L399.77 132.57 L399.21 131.75 L398.64 130.93 L398.06 130.13 L397.47 129.34 L396.87 128.57 " style="fill:none;stroke:#0080cc;stroke-width:1;" /><path d="M422.28 192.32 L422.28 192.32 L422.27 191.30 L422.26 190.27 L422.23 189.25 L422.20 188.23 L422.15 187.20 L422.10 186.18 L422.03 185.16 L421.95 184.14 L421.87 183.12 L421.77 182.10 L421.66 181.08 L421.54 180.06 L421.42 179.05 L421.28 178.03 L421.13 177.02 L420.97 176.01 L420.80 175.00 L420.63 173.99 L420.44 172.98 L420.24 171.98 L420.03 170.97 L419.81 169.97 L419.58 168.98 L419.35 167.98 L419.10 166.99 L418.84 165.99 L418.57 165.01 L418.29 164.02 L418.00 163.04 L417.71 162.06 L417.40 161.08 L417.08 160.11 L416.75 159.14 L416.42 158.17 L416.07 157.21 L415.72 156.25 L415.35 155.29 L414.98 154.34 L414.59 153.39 L414.20 152.44 L413.79 151.50 L413.38 150.57 L412.96 149.63 L412.53 148.70 L412.09 147.78 L411.64 146.86 L411.18 145.94 L410.71 145.03 L410.23 144.13 L409.74 143.23 L409.25 142.33 L408.74 141.44 L408.23 140.55 L407.71 139.67 L407.18 138.80 L406.64 137.93 L406.09 137.06 L405.53 136.20 L404.97 135.35 L404.39 134.50 L403.81 133.66 L403.22 132.82 L402.62 131.99 L402.01 131.17 L401.40 130.35 L400.78 129.54 L400.14 128.73 L399.50 127.93 L398.86 127.14 L398.20 126.35 L397.54 125.57 L396.86 124.80 L396.19 124.03 L395.50 123.27 L394.80 122.52 L394.10 121.77 L393.39 121.04 L392.68 120.30 L391.95 119.58 L391.22 118.86 L390.48 118.15 L389.74 117.45 L388.99 116.76 L388.23 116.07 L387.46 115.39 L386.69 114.72 L385.91 114.05 L385.12 113.40 L384.33 112.75 L383.53 112.11 L382.73 111.47 L381.92 110.85 L381.10 110.23 L380.27 109.63 L379.44 109.03 L378.61 108.43 L377.77 107.85 L376.92 107.28 L376.07 106.71 L375.21 106.15 L374.34 105.60 L373.47 105.06 L372.60 104.53 L371.72 104.01 L370.83 103.50 L369.94 102.99 L369.04 102.49 L368.14 102.01 L367.24 101.53 L366.33 101.06 L365.41 100.60 L364.49 100.15 L363.57 99.71 L362.64 99.28 L361.71 98.85 L360.77 98.44 L359.83 98.04 L358.89 97.64 L357.94 97.26 L356.99 96.88 L356.03 96.51 L355.07 96.16 L354.11 95.81 L353.14 95.47 L352.17 95.14 L351.20 94.83 L350.22 94.52 L349.24 94.22 L348.26 93.93 L347.27 93.65 L346.28 93.38 L345.29 93.12 L344.30 92.87 L343.30 92.64 L342.31 92.41 L341.31 92.19 L340.30 91.98 L339.30 91.78 L338.29 91.59 L337.28 91.41 L336.27 91.24 L335.26 91.08 L334.25 90.93 L333.24 90.79 L332.22 90.67 L331.20 90.55 L330.18 90.44 L329.16 90.34 L328.14 90.25 L327.12 90.18 L326.10 90.11 L325.08 90.05 L324.06 90.01 L323.03 89.97 L322.01 89.94 L320.99 89.93 L319.96 89.92 L318.94 89.92 L317.91 89.94 L316.89 89.96 L315.87 90.00 L314.84 90.04 L313.82 90.10 L312.80 90.17 L311.78 90.24 L310.76 90.33 L309.74 90.42 L308.72 90.53 L307.70 90.65 L306.69 90.77 L305.67 90.91 L304.66 91.06 L303.65 91.21 L302.64 91.38 L301.63 91.56 L300.62 91.75 L299.62 91.95 L298.61 92.15 L297.61 92.37 L296.61 92.60 L295.62 92.84 L294.62 93.08 L293.63 93.34 L292.65 93.61 L291.66 93.89 L290.68 94.17 L289.70 94.47 L288.72 94.78 L287.75 95.09 L286.78 95.42 L285.81 95.75 L284.84 96.10 L283.88 96.46 L282.93 96.82 L281.97 97.19 L281.02 97.58 L280.08 97.97 L279.14 98.37 L278.20 98.79 L277.27 99.21 L276.34 99.64 L275.41 100.08 L274.49 100.53 L273.58 100.99 L272.67 101.45 L271.76 101.93 L270.86 102.42 L269.96 102.91 L269.07 103.41 L268.18 103.93 L267.30 104.45 L266.43 104.98 L265.56 105.52 L264.69 106.07 L263.83 106.62 L262.98 107.19 L262.13 107.76 L261.29 108.34 L260.45 108.93 L259.62 109.53 L258.79 110.14 L257.97 110.75 L257.16 111.37 L256.35 112.01 L255.56 112.65 L254.76 113.29 L253.97 113.95 L253.19 114.61 L252.42 115.28 L251.65 115.96 L250.89 116.65 L250.14 117.34 L249.39 118.04 L248.65 118.75 L247.92 119.47 L247.20 120.19 L246.48 120.92 L245.77 121.66 L245.07 122.40 L244.37 123.15 L243.68 123.91 L243.00 124.68 L242.33 125.45 L241.67 126.23 L241.01 127.01 L240.36 127.80 L239.72 128.60 L239.08 129.41 L238.46 130.22 L237.84 131.04 L237.23 131.86 L236.63 132.69 L236.04 133.52 L235.46 134.37 L234.88 135.21 L234.32 136.07 L233.76 136.92 L233.21 137.79 L232.67 138.66 L232.13 139.53 L231.61 140.41 L231.10 141.30 L230.59 142.19 L230.09 143.08 L229.61 143.98 L229.13 144.89 L228.66 145.80 L228.20 146.71 L227.75 147.63 L227.30 148.56 L226.87 149.48 L226.45 150.42 L226.03 151.35 L225.63 152.29 L225.23 153.24 L224.85 154.19 L224.47 155.14 L224.10 156.09 L223.74 157.05 L223.40 158.02 L223.06 158.98 L222.73 159.95 L222.41 160.93 L222.10 161.90 L221.80 162.88 L221.51 163.86 L221.23 164.85 L220.96 165.84 L220.70 166.83 L220.45 167.82 L220.21 168.82 L219.98 169.81 L219.76 170.81 L219.55 171.82 L219.35 172.82 L219.16 173.83 L218.98 174.84 L218.81 175.84 L218.65 176.86 L218.50 177.87 L218.37 178.88 L218.24 179.90 L218.12 180.92 L218.01 181.93 L217.91 182.95 L217.82 183.97 L217.74 185.00 L217.67 186.02 L217.62 187.04 L217.57 188.06 L217.53 189.09 L217.50 190.11 L217.49 191.13 L217.48 192.16 L217.48 193.18 L217.50 194.20 L217.52 195.23 L217.56 196.25 L217.60 197.27 L217.65 198.30 L217.72 199.32 L217.79 200.34 L217.88 201.36 L217.98 202.38 L218.08 203.40 L218.20 204.42 L218.32 205.43 L218.46 206.45 L218.61 207.46 L218.76 208.47 L218.93 209.48 L219.11 210.49 L219.29 211.50 L219.49 212.50 L219.70 213.51 L219.91 214.51 L220.14 215.51 L220.38 216.50 L220.62 217.50 L220.88 218.49 L221.15 219.48 L221.42 220.46 L221.71 221.45 L222.01 222.43 L222.31 223.40 L222.63 224.38 L222.95 225.35 L223.29 226.32 L223.63 227.28 L223.99 228.24 L224.35 229.20 L224.72 230.15 L225.11 231.10 L225.50 232.05 L225.90 232.99 L226.31 233.93 L226.73 234.86 L227.16 235.79 L227.60 236.71 L228.05 237.63 L228.51 238.55 L228.98 239.46 L229.45 240.37 L229.94 241.27 L230.43 242.17 L230.93 243.06 L231.45 243.95 L231.97 244.83 L232.50 245.70 L233.03 246.58 L233.58 247.44 L234.14 248.30 L234.70 249.16 L235.27 250.00 L235.85 250.85 L236.44 251.69 L237.04 252.52 L237.65 253.34 L238.26 254.16 L238.88 254.97 L239.52 255.78 L240.15 256.58 L240.80 257.38 L241.46 258.16 L242.12 258.94 L242.79 259.72 L243.47 260.49 L244.15 261.25 L244.84 262.00 L245.54 262.75 L246.25 263.49 L246.97 264.22 L247.69 264.95 L248.42 265.66 L249.16 266.37 L249.90 267.08 L250.65 267.77 L251.41 268.46 L252.18 269.14 L252.95 269.82 L253.73 270.48 L254.51 271.14 L255.30 271.79 L256.10 272.43 L256.90 273.06 L257.71 273.69 L258.53 274.31 L259.35 274.92 L260.18 275.52 L261.02 276.11 L261.86 276.70 L262.71 277.27 L263.56 277.84 L264.42 278.40 L265.28 278.95 L266.15 279.49 L267.02 280.02 L267.90 280.55 L268.79 281.06 L269.68 281.57 L270.57 282.07 L271.47 282.56 L272.38 283.04 L273.29 283.51 L274.20 283.97 L275.12 284.42 L276.04 284.86 L276.97 285.30 L277.90 285.72 L278.84 286.14 L279.78 286.54 L280.72 286.94 L281.67 287.32 L282.62 287.70 L283.58 288.07 L284.54 288.43 L285.50 288.78 L286.47 289.12 L287.44 289.44 L288.41 289.76 L289.39 290.07 L290.36 290.37 L291.35 290.66 L292.33 290.94 L293.32 291.22 L294.31 291.48 L295.30 291.73 L296.30 291.97 L297.29 292.20 L298.29 292.42 L299.30 292.63 L300.30 292.83 L301.31 293.02 L302.31 293.20 L303.32 293.37 L304.34 293.53 L305.35 293.68 L306.36 293.82 L307.38 293.95 L308.40 294.07 L309.41 294.18 L310.43 294.28 L311.45 294.37 L312.47 294.45 L313.50 294.52 L314.52 294.58 L315.54 294.63 L316.56 294.67 L317.59 294.69 L318.61 294.71 L319.64 294.72 L320.66 294.72 L321.68 294.70 L322.71 294.68 L323.73 294.65 L324.75 294.60 L325.78 294.55 L326.80 294.49 L327.82 294.41 L328.84 294.33 L329.86 294.23 L330.88 294.13 L331.90 294.01 L332.91 293.89 L333.93 293.75 L334.94 293.61 L335.95 293.45 L336.96 293.28 L337.97 293.11 L338.98 292.92 L339.98 292.73 L340.99 292.52 L341.99 292.30 L342.99 292.08 L343.98 291.84 L344.98 291.60 L345.97 291.34 L346.96 291.08 L347.94 290.80 L348.93 290.51 L349.91 290.22 L350.88 289.91 L351.86 289.60 L352.83 289.27 L353.80 288.94 L354.76 288.60 L355.72 288.24 L356.68 287.88 L357.63 287.51 L358.58 287.12 L359.53 286.73 L360.47 286.33 L361.41 285.92 L362.35 285.50 L363.27 285.07 L364.20 284.63 L365.12 284.18 L366.04 283.73 L366.95 283.26 L367.86 282.79 L368.76 282.30 L369.66 281.81 L370.55 281.31 L371.44 280.79 L372.32 280.27 L373.19 279.75 L374.07 279.21 L374.93 278.66 L375.79 278.11 L376.65 277.54 L377.50 276.97 L378.34 276.39 L379.18 275.80 L380.01 275.21 L380.84 274.60 L381.66 273.99 L382.47 273.36 L383.28 272.74 L384.08 272.10 L384.87 271.45 L385.66 270.80 L386.44 270.14 L387.22 269.47 L387.98 268.79 L388.75 268.10 L389.50 267.41 L390.25 266.71 L390.99 266.00 L391.72 265.29 L392.45 264.57 L393.17 263.84 L393.88 263.10 L394.58 262.36 L395.28 261.61 L395.97 260.85 L396.65 260.09 L397.32 259.31 L397.99 258.54 L398.65 257.75 L399.30 256.96 L399.94 256.16 L400.57 255.36 L401.20 254.55 L401.82 253.73 L402.43 252.91 L403.03 252.08 L403.62 251.25 L404.21 250.41 L404.79 249.56 L405.35 248.71 L405.91 247.85 L406.47 246.99 L407.01 246.12 L407.54 245.25 L408.07 244.37 L408.58 243.48 L409.09 242.59 L409.59 241.70 L410.08 240.80 L410.56 239.90 L411.03 238.99 L411.49 238.07 L411.94 237.15 L412.39 236.23 L412.82 235.30 L413.25 234.37 L413.66 233.44 L414.07 232.50 L414.47 231.55 L414.85 230.60 L415.23 229.65 L415.60 228.70 L415.96 227.74 L416.31 226.78 L416.65 225.81 L416.98 224.84 L417.30 223.87 L417.61 222.89 L417.91 221.91 L418.20 220.93 L418.48 219.95 L418.75 218.96 L419.02 217.97 L419.27 216.98 L419.51 215.98 L419.74 214.98 L419.96 213.99 L420.17 212.98 L420.38 211.98 L420.57 210.97 L420.75 209.97 L420.92 208.96 L421.08 207.94 L421.23 206.93 L421.37 205.92 L421.50 204.90 L421.62 203.89 L421.74 202.87 L421.84 201.85 L421.93 200.83 L422.01 199.81 L422.08 198.79 L422.14 197.76 L422.18 196.74 L422.22 195.72 L422.25 194.69 L422.27 193.67 L422.28 192.65 " style="fill:none;stroke:#ff0000;stroke-width:1;" /></g></svg>