<svg width="229.547" height="130.787" viewBox="0 0 229.547 130.787" xmlns="http://www.w3.org/2000/svg"><path d="M21.568 7.784c-.018 6.718-3.415 10.855-9.414 11.494C9.708 11.42 5.64 6.018 2.511 2.146c.182.082.358.177.552.268 5.176 2.519 10.513 5.127 18.505 5.37" fill="#cecdcd"/><path d="M22.71 7.797c-.028 7.185-3.807 11.83-10.228 12.604.278.987.542 2.003.762 3.065l-1.117.227C9.87 12.973 4.378 6.253.746 1.806L0 .876S.264.742.437.52C.61.301.688-.002.688-.002c.97.459 1.925.912 2.872 1.38 6.136 2.992 11.926 5.83 21.947 5.196l.073 1.138c-.995.067-1.945.087-2.87.085zM12.154 19.278c6-.639 9.396-4.776 9.414-11.494C13.576 7.54 8.24 4.933 3.063 2.414c-.194-.09-.37-.186-.552-.268 3.128 3.872 7.197 9.274 9.643 17.132" fill="#231f20"/><path d="M18.687 15.28c-1.627 1.904-3.923 2.607-5.13 1.575-1.208-1.037-.864-3.414.763-5.312 1.628-1.902 3.925-2.604 5.133-1.571 1.206 1.032.864 3.41-.766 5.309" fill="#fff"/><path d="M18.005 15.363c-.732.779-1.866.903-2.534.274-.671-.627-.62-1.765.112-2.547.732-.78 1.867-.904 2.536-.275.668.628.617 1.769-.114 2.548" fill="#231f20"/><path d="M24.848 108.283h204.699" fill="none" stroke="#231f20" stroke-width=".66665" stroke-miterlimit="10"/><path d="M56.224 63.291l22.69-38.762" fill="none" stroke="#231f20" stroke-width="1.3333" stroke-miterlimit="10"/><path d="M216.792 108.205V42.894" fill="none" stroke="#231f20" stroke-width=".9999750000000001" stroke-miterlimit="10"/><path d="M216.792 44.33l-2.883 1.753-.065-.098 1.868-4.7c.359-1.638.72-3.275 1.08-4.913l1.081 4.913 1.867 4.7-.05.098-2.898-1.754" fill="#231f20"/><path d="M211.867 92.3c-2.125 0-3.484 3.563-3.484 6.079 0 1.25.344 2.61 1.687 2.61 2.157 0 3.422-3.594 3.422-6.157 0-1.297-.344-2.531-1.625-2.531zm-2.265 3.891c.359-1.796 1.125-3.484 2.093-3.484.782 0 .86 1.188.86 1.828 0 .547-.078 1.063-.14 1.656zm2.718.563c-.328 1.906-1.093 3.812-2.093 3.812-.704 0-.891-1.03-.891-1.968 0-.625.078-1.235.172-1.844zm0 0" aria-label="θ" fill="#231f20"/><path d="M130.144 110.288v4.375h86.85v-4.7" fill="none" stroke="#231f20" stroke-width=".66665" stroke-miterlimit="10"/><g aria-label="dA dA cos θ" fill="#231f20"><path d="M172.617 125.86l-.39-.032c-.438-.062-.516-.11-.516-.734v-7.172a10.79 10.79 0 01-1.875.422v.281c.86.063.922.11.922.89v1.704a2.444 2.444 0 00-.797-.14c-1.625 0-3.094 1.312-3.094 2.984 0 1.671 1.266 2.546 2.219 2.546.14 0 .469-.062.937-.343l.735-.438v.781c.703-.25 1.594-.406 1.86-.453zm-1.86-.407a1.984 1.984 0 01-1.155.406c-.766 0-1.641-.703-1.641-2.125 0-1.734 1.016-2.203 1.562-2.203.454 0 .954.188 1.235.61zm0 0M180.203 126.14c-.86-.077-.937-.187-1.078-1.046a131.957 131.957 0 01-.766-4.469l-.343-2.125-.375.094-3.61 6.406c-.562.984-.687 1.047-1.406 1.14l-.094.329h2.578l.079-.328c-.922-.063-1.016-.157-.657-.875.266-.547.625-1.25.828-1.625h2.516c.125.687.219 1.265.297 1.765.078.516.031.657-.797.735l-.094.328h2.844zm-2.406-3.015h-2.172c.516-1.016 1.078-2 1.672-3.094h.031zm0 0M95.09 12.805l-.39-.032c-.438-.062-.516-.109-.516-.734V4.867a10.79 10.79 0 01-1.875.422v.281c.859.063.921.11.921.89v1.704a2.444 2.444 0 00-.796-.14c-1.625 0-3.094 1.312-3.094 2.984s1.265 2.547 2.219 2.547c.14 0 .468-.063.937-.344l.734-.438v.782c.704-.25 1.594-.407 1.86-.453zm-1.86-.407a1.984 1.984 0 01-1.156.407c-.765 0-1.64-.703-1.64-2.125 0-1.735 1.015-2.203 1.562-2.203.453 0 .953.187 1.234.609zm0 0M102.676 13.086c-.86-.078-.938-.188-1.078-1.047a131.958 131.958 0 01-.766-4.469l-.344-2.125-.375.094-3.61 6.406c-.562.985-.687 1.047-1.405 1.14l-.094.33h2.578l.078-.33c-.922-.062-1.015-.155-.656-.874.266-.547.625-1.25.828-1.625h2.516c.125.687.218 1.266.297 1.766.078.515.03.656-.797.734l-.094.328h2.844zm-2.406-3.016h-2.172c.515-1.015 1.078-2 1.672-3.093h.03zm0 0M110.602 12.086c-.547.516-.938.656-1.454.656-.671 0-1.812-.547-1.812-2.219 0-1.265.687-1.921 1.484-1.921.422 0 .844.156 1.203.5.11.093.157.125.22.125.14 0 .405-.266.405-.516 0-.14-.046-.234-.203-.375-.187-.156-.578-.313-1.062-.313-.469 0-1.188.188-1.813.672-.797.625-1.203 1.438-1.203 2.36 0 1.28.89 2.5 2.406 2.5.704 0 1.516-.532 2.032-1.22zm3.464-4.063c-1.093 0-2.64.907-2.64 2.875 0 1.344.984 2.657 2.64 2.657 1.188 0 2.594-.922 2.594-2.86 0-1.484-1.11-2.672-2.594-2.672zm-.125.407c1.047 0 1.61 1.125 1.61 2.53 0 1.657-.61 2.204-1.36 2.204-.984 0-1.64-1.125-1.64-2.64 0-1.36.64-2.094 1.39-2.094zm7.012 1.078c-.047-.297-.172-1-.265-1.281a2.83 2.83 0 00-1.063-.204c-1.11 0-1.828.704-1.828 1.547 0 .922.781 1.328 1.5 1.657.594.28.937.562.937 1.093a.84.84 0 01-.843.844c-.72 0-1.266-.703-1.485-1.484l-.312.047c0 .437.11 1.25.203 1.421.219.188.766.407 1.375.407.969 0 1.984-.563 1.984-1.657 0-.828-.61-1.25-1.515-1.625-.547-.234-1.016-.5-1.016-1.046 0-.47.328-.829.781-.829.578 0 1 .485 1.235 1.188zm0 0M128.426 4.867c-2.125 0-3.485 3.563-3.485 6.078 0 1.25.344 2.61 1.688 2.61 2.156 0 3.422-3.594 3.422-6.157 0-1.296-.344-2.53-1.625-2.53zm-2.266 3.89c.36-1.796 1.125-3.484 2.094-3.484.781 0 .86 1.188.86 1.829 0 .546-.079 1.062-.141 1.656zm2.719.563c-.328 1.907-1.094 3.813-2.094 3.813-.703 0-.89-1.031-.89-1.969 0-.625.078-1.234.171-1.844zm0 0"/></g><path d="M152.895 69.508l16.776-12.077 23.593 14.004" fill="none" stroke="#3871c1" stroke-width=".9999750000000001" stroke-miterlimit="10"/><path d="M136.119 81.586l16.776-12.078" fill="none" stroke="#3871c1" stroke-width="2.6666" stroke-miterlimit="10"/><path d="M93.175 56.074l30.417 34.53 12.527-9.018" fill="none" stroke="#3871c1" stroke-width=".9999750000000001" stroke-miterlimit="10"/><path d="M73.484 74.071l19.691-17.997" fill="none" stroke="#3871c1" stroke-width="2.6666" stroke-miterlimit="10"/><path d="M26.271 76.87l29.123 13.734 18.29-16.716" fill="none" stroke="#3871c1" stroke-width=".9999750000000001" stroke-miterlimit="10"/><path d="M69.301 40.951l66.696 40.465" fill="none" stroke="#231f20" stroke-width=".66665" stroke-miterlimit="10" stroke-dasharray="20 20"/><path d="M26.528 45.5l103.41 62.74M49.218 6.543L216.97 108.319M86.037 8.794c-10.386 0-13.09 2.796-16.093 7.76-2.17 3.588-2.213 8.48-1.57 12.157" fill="none" stroke="#231f20" stroke-width=".66665" stroke-miterlimit="10"/><path d="M68.173 27.513l1.819-2.144.077.06-.24 4.209.436 4.168-2.146-3.6-2.712-3.227.013-.09 2.753.624" fill="#231f20"/></svg>