<svg width="355.76" height="116.92" viewBox="0 0 355.76 116.92" xmlns="http://www.w3.org/2000/svg"><path d="M46.523 114.367c-1.187-1.015-1.875-2.937-1.875-5 0-2.062.688-4 1.875-5l-.203-.281c-1.765 1.203-2.547 3.11-2.547 5.266 0 2.171.782 4.109 2.547 5.28zm5.762-2.234l-.125-.313a.904.904 0 01-.437.14c-.203 0-.422-.187-.422-.733v-2.22c0-.624-.11-1.124-.531-1.468-.266-.219-.625-.328-.985-.328-.687.14-1.469.61-1.797.844-.234.172-.39.297-.39.484 0 .266.312.516.53.516.173 0 .298-.094.345-.282.093-.375.203-.64.359-.796a.691.691 0 01.547-.235c.594 0 1 .485 1 1.36v.218c-.266.203-1.14.532-1.86.766-.656.234-.968.61-.968 1.203 0 .75.594 1.453 1.437 1.453.36 0 .938-.437 1.422-.765.063.203.125.375.281.546.141.11.391.22.563.22zm-1.906-.547c-.219.219-.64.422-.953.437-.375 0-.86-.296-.86-.921 0-.438.266-.657.735-.875.25-.125.828-.375 1.078-.5zm2.52-7.219c1.187.985 1.89 2.938 1.89 5 0 2.063-.672 3.985-1.89 5l.218.266c1.797-1.219 2.531-3.11 2.531-5.266 0-2.172-.734-4.078-2.53-5.281zm120.718 10c-1.187-1.015-1.875-2.937-1.875-5 0-2.062.688-4 1.875-5l-.203-.281c-1.766 1.203-2.547 3.11-2.547 5.266 0 2.171.781 4.109 2.547 5.28zm2.383-6.61v-3.702c-.453.156-1.188.343-1.75.422v.28c.781.063.797.141.797.891v6.672a4.12 4.12 0 001.765.422c1.61 0 3.016-1.25 3.016-3.015 0-1.407-1.078-2.516-2.375-2.516-.125 0-.297.031-.484.125zm0 .36c.219-.14.594-.234.937-.234.985 0 1.829.797 1.829 2.156 0 1.406-.641 2.25-1.625 2.25-.641-.016-1-.437-1.079-.672a1.01 1.01 0 01-.062-.406zm4.816-3.75c1.188.985 1.891 2.938 1.891 5 0 2.063-.672 3.985-1.89 5l.218.266c1.797-1.219 2.531-3.11 2.531-5.266 0-2.172-.734-4.078-2.53-5.281zm121.77 10c-1.188-1.015-1.875-2.937-1.875-5 0-2.062.687-4 1.875-5l-.203-.281c-1.766 1.203-2.547 3.11-2.547 5.266 0 2.171.781 4.109 2.547 5.28zm5.246-3.094c-.547.516-.937.657-1.453.657-.672 0-1.813-.547-1.813-2.22 0-1.265.688-1.92 1.485-1.92.422 0 .844.155 1.203.5.11.093.156.124.219.124.14 0 .406-.266.406-.516 0-.14-.047-.234-.203-.375-.188-.156-.578-.312-1.063-.312-.468 0-1.187.187-1.812.672-.797.625-1.203 1.437-1.203 2.36 0 1.28.89 2.5 2.406 2.5.703 0 1.516-.532 2.031-1.22zm.934-6.906c1.187.985 1.89 2.938 1.89 5 0 2.063-.672 3.985-1.89 5l.218.266c1.797-1.219 2.532-3.11 2.532-5.266 0-2.172-.735-4.078-2.532-5.281zm0 0" aria-label="(a)(b)(c)" fill="#231f20"/><path d="M19.628 28.283c.207 6.045-2.711 9.878-8.085 10.651-2.462-6.985-6.3-11.708-9.242-15.089.167.07.327.148.505.223 4.738 2.094 9.626 4.262 16.822 4.215" fill="#cecdcd"/><path d="M20.656 28.259c.213 6.462-3.032 10.765-8.781 11.674.282.879.555 1.784.786 2.732l-.997.24C9.28 33.34 4.116 27.478.702 23.6L0 22.787s.233-.127.38-.333c.149-.204.21-.48.21-.48.887.382 1.762.758 2.629 1.147 5.619 2.487 10.919 4.846 19.91 3.944l.104 1.021c-.892.093-1.746.142-2.577.173zm-9.113 10.675c5.374-.773 8.292-4.606 8.085-10.65-7.196.046-12.084-2.122-16.822-4.216-.178-.075-.338-.153-.505-.223 2.941 3.381 6.78 8.104 9.242 15.089" fill="#231f20"/><path d="M17.285 35.123c-1.4 1.765-3.441 2.474-4.561 1.586-1.12-.893-.89-3.042.509-4.804 1.401-1.764 3.444-2.472 4.564-1.583 1.121.889.892 3.039-.512 4.8" fill="#fff"/><path d="M16.675 35.22c-.633.725-1.649.873-2.271.33-.623-.542-.615-1.568.015-2.294.634-.727 1.65-.876 2.274-.333.622.544.613 1.57-.018 2.296" fill="#231f20"/><path d="M77.858 81.842c3.152-18.969 6.685-37.141 9.837-56.11" fill="none" stroke="#231f20" stroke-width=".9999750000000001" stroke-miterlimit="10"/><path d="M58.26 66.93l7.922 6.23 11.676 8.682" fill="none" stroke="#231f20" stroke-width=".9999750000000001" stroke-miterlimit="10" stroke-dasharray="20 20"/><path d="M22.393 38.73l35.867 28.2" fill="none" stroke="#231f20" stroke-width=".9999750000000001" stroke-miterlimit="10"/><path d="M18.425 81.457l8.835-9.161 14.917 19.518 18.827-28.579L72.59 85.441s21-10.406 21-10.555" fill="none" stroke="#3871c1" stroke-width="1.3333" stroke-miterlimit="10"/><path d="M165.257 23.54c.21 6.045-2.709 9.878-8.082 10.652-2.463-6.986-6.302-11.708-9.243-15.088.167.069.325.148.504.223 4.74 2.093 9.627 4.261 16.821 4.214" fill="#cecdcd"/><path d="M166.287 23.516c.213 6.462-3.034 10.766-8.78 11.675.281.878.553 1.784.785 2.732l-.997.24c-2.386-9.566-7.547-15.427-10.963-19.306l-.7-.812s.232-.128.38-.333c.148-.204.21-.48.21-.48.886.382 1.76.758 2.627 1.146 5.62 2.488 10.919 4.847 19.911 3.946l.104 1.02c-.892.093-1.747.142-2.577.172zm-9.112 10.676c5.373-.774 8.292-4.607 8.082-10.651-7.194.047-12.081-2.121-16.821-4.214-.179-.075-.337-.154-.504-.223 2.941 3.38 6.78 8.102 9.243 15.088" fill="#231f20"/><path d="M162.917 30.38c-1.4 1.765-3.444 2.475-4.561 1.587-1.121-.893-.89-3.042.508-4.803 1.401-1.765 3.444-2.473 4.563-1.585 1.122.889.892 3.04-.51 4.801" fill="#fff"/><path d="M162.305 30.477c-.632.725-1.649.874-2.27.331-.623-.542-.616-1.568.016-2.295.634-.725 1.649-.875 2.272-.331.622.543.614 1.57-.018 2.295" fill="#231f20"/><path d="M192.584 69.062L150.317 56.02" fill="none" stroke="#231f20" stroke-width=".9999750000000001" stroke-miterlimit="10"/><path d="M221.973 78.13l-21.189-6.538-8.2-2.53" fill="none" stroke="#231f20" stroke-width=".9999750000000001" stroke-miterlimit="10" stroke-dasharray="20 20"/><path d="M168.044 34.517l54.32 43.572" fill="none" stroke="#231f20" stroke-width=".9999750000000001" stroke-miterlimit="10"/><path d="M153.844 81.457l8.835-9.161 14.917 19.518 18.827-28.579 11.586 22.206s21-10.406 21-10.555" fill="none" stroke="#3871c1" stroke-width="1.3333" stroke-miterlimit="10"/><path d="M274.548 39.583c.207 6.043-2.71 9.876-8.084 10.65-2.461-6.986-6.3-11.709-9.243-15.088.167.068.327.147.506.223 4.74 2.093 9.626 4.26 16.821 4.215" fill="#cecdcd"/><path d="M275.577 39.556c.214 6.463-3.033 10.767-8.78 11.676.282.88.554 1.784.786 2.73l-.998.242c-2.386-9.566-7.549-15.427-10.962-19.305l-.702-.814s.232-.128.382-.332c.148-.204.208-.48.208-.48.888.382 1.761.757 2.628 1.145 5.618 2.489 10.92 4.848 19.912 3.946l.102 1.02c-.892.093-1.745.143-2.576.172zm-9.113 10.677c5.375-.774 8.29-4.607 8.084-10.65-7.195.046-12.081-2.122-16.821-4.215-.179-.076-.339-.155-.506-.223 2.943 3.38 6.782 8.102 9.243 15.088" fill="#231f20"/><path d="M272.205 46.422c-1.398 1.764-3.441 2.473-4.56 1.585-1.12-.893-.89-3.041.51-4.802 1.401-1.766 3.444-2.472 4.562-1.584 1.122.89.892 3.039-.512 4.8" fill="#fff"/><path d="M271.596 46.518c-.632.725-1.65.873-2.27.33-.625-.542-.617-1.568.015-2.294.632-.725 1.65-.875 2.272-.332.623.543.615 1.57-.017 2.296" fill="#231f20"/><path d="M335.497 21.975l-42.737 55.55 22.403-3.139-39.299-24.99" fill="none" stroke="#231f20" stroke-width=".9999750000000001" stroke-linejoin="bevel" stroke-miterlimit="10"/><path d="M279.93 81.457l8.834-9.161 14.919 19.518 18.826-28.579 11.586 22.206s21-10.406 21-10.555" fill="none" stroke="#3871c1" stroke-width="1.3333" stroke-miterlimit="10"/><path d="M91.162 2.456l.754 2.929 1.348-2.707.129 3.02 1.88-2.367-.5 2.982 2.33-1.926-1.11 2.814 2.682-1.4-1.672 2.521 2.914-.81-2.159 2.117 3.019-.186-2.551 1.623 2.99.445-2.833 1.056 2.834 1.057-2.991.445 2.55 1.623-3.018-.187 2.16 2.118-2.915-.81 1.672 2.52-2.682-1.399 1.11 2.813-2.33-1.925.5 2.982-1.88-2.368-.13 3.02-1.347-2.706-.754 2.928-.756-2.928-1.347 2.707-.13-3.02-1.882 2.367.503-2.982-2.332 1.925 1.11-2.813-2.68 1.4 1.67-2.521-2.912.81 2.157-2.118-3.018.187 2.552-1.623-2.99-.445 2.831-1.057-2.832-1.056 2.99-.445-2.551-1.623 3.018.186-2.157-2.117 2.912.81-1.67-2.52 2.68 1.399-1.11-2.814 2.332 1.926-.503-2.982 1.882 2.368.13-3.021 1.347 2.707.756-2.929" fill="#fddd1b"/><path d="M91.162 2.456l.754 2.929 1.348-2.707.129 3.02 1.88-2.367-.5 2.982 2.33-1.926-1.11 2.814 2.682-1.4-1.672 2.521 2.914-.81-2.159 2.117 3.019-.186-2.551 1.623 2.99.445-2.833 1.056 2.834 1.057-2.991.445 2.55 1.623-3.018-.187 2.16 2.118-2.915-.81 1.672 2.52-2.682-1.399 1.11 2.813-2.33-1.925.5 2.982-1.88-2.368-.13 3.02-1.347-2.706-.754 2.928-.756-2.928-1.347 2.707-.13-3.02-1.882 2.367.503-2.982-2.332 1.925 1.11-2.813-2.68 1.4 1.67-2.521-2.912.81 2.157-2.118-3.018.187 2.552-1.623-2.99-.445 2.831-1.057-2.832-1.056 2.99-.445-2.551-1.623 3.018.186-2.157-2.117 2.912.81-1.67-2.52 2.68 1.399-1.11-2.814 2.332 1.926-.503-2.982 1.882 2.368.13-3.021 1.347 2.707z" fill="none" stroke="#231f20" stroke-width=".46665500000000004" stroke-miterlimit="7"/><path d="M137.923 41.218l.754 2.929 1.348-2.708.128 3.022 1.88-2.369-.5 2.983 2.331-1.926-1.11 2.813 2.682-1.399-1.672 2.521 2.915-.81-2.159 2.117 3.017-.187-2.55 1.624 2.99.444-2.833 1.057 2.833 1.057-2.99.445 2.55 1.623-3.017-.188 2.159 2.118-2.915-.81 1.672 2.52-2.683-1.398 1.111 2.813-2.33-1.925.5 2.982-1.88-2.368-.129 3.02-1.348-2.707-.754 2.93-.756-2.93-1.347 2.708-.13-3.02-1.882 2.367.503-2.982-2.332 1.925 1.111-2.813-2.681 1.399 1.67-2.52-2.912.809 2.158-2.118-3.019.188 2.552-1.623-2.99-.445 2.83-1.057-2.83-1.057 2.99-.444-2.552-1.624 3.019.187-2.158-2.117 2.913.81-1.671-2.52 2.681 1.398-1.11-2.813 2.33 1.926-.502-2.983 1.883 2.369.129-3.022 1.347 2.708.756-2.93" fill="#fddd1b"/><path d="M137.923 41.218l.754 2.929 1.348-2.708.128 3.022 1.88-2.369-.5 2.983 2.331-1.926-1.11 2.813 2.682-1.399-1.672 2.521 2.915-.81-2.159 2.117 3.017-.187-2.55 1.624 2.99.444-2.833 1.057 2.833 1.057-2.99.445 2.55 1.623-3.017-.188 2.159 2.118-2.915-.81 1.672 2.52-2.683-1.398 1.111 2.813-2.33-1.925.5 2.982-1.88-2.368-.129 3.02-1.348-2.707-.754 2.93-.756-2.93-1.347 2.708-.13-3.02-1.882 2.367.503-2.982-2.332 1.925 1.111-2.813-2.681 1.399 1.67-2.52-2.912.809 2.158-2.118-3.019.188 2.552-1.623-2.99-.445 2.83-1.057-2.83-1.057 2.99-.444-2.552-1.624 3.019.187-2.158-2.117 2.913.81-1.671-2.52 2.681 1.398-1.11-2.813 2.33 1.926-.502-2.983 1.883 2.369.129-3.022 1.347 2.708z" fill="none" stroke="#231f20" stroke-width=".46665500000000004" stroke-miterlimit="7"/><path d="M344.268.937l.756 2.928 1.345-2.707.131 3.02 1.88-2.367-.5 2.982 2.33-1.925L349.1 5.68l2.682-1.399-1.672 2.52 2.915-.81-2.16 2.118 3.019-.187-2.55 1.623 2.99.445-2.834 1.057 2.834 1.057-2.99.445 2.55 1.623-3.019-.188 2.16 2.118-2.915-.81 1.672 2.52-2.682-1.398 1.112 2.812-2.331-1.925.5 2.983-1.88-2.368-.13 3.02-1.346-2.707-.756 2.93-.755-2.93-1.346 2.708-.131-3.021-1.883 2.368.503-2.983-2.33 1.925 1.109-2.812-2.68 1.398 1.669-2.52-2.91.81 2.155-2.118-3.018.188 2.552-1.623-2.99-.445 2.831-1.057-2.83-1.057 2.989-.445-2.552-1.623 3.018.187-2.156-2.118 2.911.81-1.67-2.52 2.68 1.399-1.109-2.813 2.331 1.925-.503-2.982 1.883 2.368.13-3.021 1.347 2.707.755-2.928" fill="#fddd1b"/><path d="M344.268.937l.756 2.928 1.345-2.707.131 3.02 1.88-2.367-.5 2.982 2.33-1.925L349.1 5.68l2.682-1.399-1.672 2.52 2.915-.81-2.16 2.118 3.019-.187-2.55 1.623 2.99.445-2.834 1.057 2.834 1.057-2.99.445 2.55 1.623-3.019-.188 2.16 2.118-2.915-.81 1.672 2.52-2.682-1.398 1.112 2.812-2.331-1.925.5 2.983-1.88-2.368-.13 3.02-1.346-2.707-.756 2.93-.755-2.93-1.346 2.708-.131-3.021-1.883 2.368.503-2.983-2.33 1.925 1.109-2.812-2.68 1.398 1.669-2.52-2.91.81 2.155-2.118-3.018.188 2.552-1.623-2.99-.445 2.831-1.057-2.83-1.057 2.989-.445-2.552-1.623 3.018.187-2.156-2.118 2.911.81-1.67-2.52 2.68 1.399-1.109-2.813 2.331 1.925-.503-2.982 1.883 2.368.13-3.021 1.347 2.707z" fill="none" stroke="#231f20" stroke-width=".46665500000000004" stroke-miterlimit="7"/></svg>