<svg width="150.867" height="34.547" viewBox="0 0 150.867 34.547" xmlns="http://www.w3.org/2000/svg"><path d="M50.443 5.069v8.183M54.259 2.278v10.955M59.37 6.477v6.771M62.557 1.305v11.932M67.418 6.01v7.216M70.065 1.848v11.39M73.198 6.26v6.999M76.98 2.055v11.204M79.031 5.62v7.617M82.164.707v12.541M86.27 5.87v7.4M88.321 1.717v11.531M92.697 5.977v7.304M94.37 1.457v11.78M97.99 5.63v7.607M101.07 1.533v11.715" fill="none" stroke="#231f20" stroke-width=".66665" stroke-miterlimit="10"/><path d="M23.661 6.225l6.073-4.79 2.815 4.97 4.12-4.899 5.94 4.963 3.426-4.31 4.59 2.99 3.756-3.04 4.989 4.36 3.213-5.206 4.802 4.864 2.673-4.448 3.158 4.644 3.963-4.479 1.867 3.843L82.204.506l2.187 2.64 1.942 2.932 1.942-4.646 4.463 4.66 1.369-5.048 3.886 4.692 3.402-4.643 1.415 5.12 2.957-4.534 3.401 4.301 3.157-4.594L117 5.812l1.6-4.146 6.403 4.79 3.112-4.777" fill="none" stroke="#3871c1" stroke-width=".9999750000000001" stroke-linejoin="round" stroke-miterlimit="10"/><path d="M0 13.135h150.863" fill="none" stroke="#231f20" stroke-width=".9999750000000001" stroke-miterlimit="10"/><path d="M50.097 15.095v2.572h51.06v-2.762" fill="none" stroke="#231f20" stroke-width=".66665" stroke-miterlimit="10"/><g aria-label="dA" fill="#231f20"><path d="M74.937 29.617l-.39-.031c-.438-.063-.516-.11-.516-.734V21.68a10.79 10.79 0 01-1.875.422v.28c.86.063.922.11.922.891v1.704a2.444 2.444 0 00-.797-.141c-1.625 0-3.094 1.312-3.094 2.984s1.266 2.547 2.22 2.547c.14 0 .468-.062.937-.344l.734-.437v.781c.703-.25 1.594-.406 1.86-.453zm-1.859-.406a1.984 1.984 0 01-1.156.406c-.766 0-1.64-.703-1.64-2.125 0-1.734 1.015-2.203 1.562-2.203.453 0 .953.188 1.234.61zm0 0M82.523 29.898c-.859-.078-.937-.187-1.078-1.046a131.957 131.957 0 01-.765-4.47l-.344-2.124-.375.094-3.61 6.406c-.562.984-.687 1.047-1.406 1.14l-.093.329h2.578l.078-.329c-.922-.062-1.016-.156-.656-.875.265-.546.625-1.25.828-1.625h2.515c.125.688.22 1.266.297 1.766.078.516.031.656-.797.734l-.093.329h2.843zm-2.406-3.015h-2.172c.516-1.016 1.078-2 1.672-3.094h.031zm0 0"/></g></svg>